<?xml version="1.0" encoding="UTF-8" standalone="no"?><!-- Generator: Gravit.io --><svg xmlns="http://www.w3.org/2000/svg" xmlns:xlink="http://www.w3.org/1999/xlink" style="isolation:isolate" viewBox="-1.5 -1.5 257 295" width="257pt" height="295pt"><defs><clipPath id="_clipPath_fJjeV8iRwbbXIq16w7gfZjaJCJt44xNT"><rect x="-1.5" y="-1.5" width="257" height="295"/></clipPath></defs><g clip-path="url(#_clipPath_fJjeV8iRwbbXIq16w7gfZjaJCJt44xNT)"><path d=" M -0.333 75.167 L 126.667 0.167 L 253.667 75.167 L 253.667 220.167 L 126.667 292.167 L -0.333 220.167 L -0.333 75.167 Z  M 15.667 79.167 L 126.667 12.167 L 236.667 79.167 L 126.667 142.167 L 15.667 79.167 L 15.667 79.167 L 15.667 79.167 Z  M 10.667 88.167 L 10.667 213.167 L 120.667 276.167 L 120.667 151.167 L 10.667 88.167 L 10.667 88.167 L 10.667 88.167 Z  M 131.667 151.167 L 242.667 88.167 L 242.667 213.167 L 131.667 276.167 L 131.667 151.167 L 131.667 151.167 Z " fill-rule="evenodd" fill="rgb(0,0,0)" vector-effect="non-scaling-stroke" stroke-width="1" stroke="rgb(0,0,0)" stroke-linejoin="miter" stroke-linecap="square" stroke-miterlimit="3"/></g></svg>