<?xml version="1.0" encoding="UTF-8" standalone="no"?><!-- Generator: Gravit.io --><svg xmlns="http://www.w3.org/2000/svg" xmlns:xlink="http://www.w3.org/1999/xlink" style="isolation:isolate" viewBox="-1.5 -1.5 279 287" width="279pt" height="287pt"><defs><clipPath id="_clipPath_rRxrkJKCLTH8FB8SMVjFOSTTzI5ZNCnR"><rect x="-1.5" y="-1.5" width="279" height="287"/></clipPath></defs><g clip-path="url(#_clipPath_rRxrkJKCLTH8FB8SMVjFOSTTzI5ZNCnR)"><path d=" M 0 153 L 138 0 L 276 153 L 138 284 L 0 153 Z " fill="rgb(0,0,0)" vector-effect="non-scaling-stroke" stroke-width="1" stroke="rgb(0,0,0)" stroke-linejoin="miter" stroke-linecap="square" stroke-miterlimit="3"/><path d=" M 24 142 L 112 44 L 68 130 L 24 142 L 24 142 L 24 142 L 24 142 Z  M 164 44 L 208 130 L 252 142 L 164 44 L 164 44 L 164 44 L 164 44 Z  M 138 19 L 80 130 L 138 155 L 196 130 L 138 19 L 138 19 L 138 19 Z  M 143 166 L 204 139 L 257 155 L 143 265 L 143 166 L 143 166 Z  M 133 166 L 133 265 L 18 155 L 72 139 L 133 166 Z " fill-rule="evenodd" fill="rgb(255,255,255)" vector-effect="non-scaling-stroke" stroke-width="1" stroke="rgb(255,255,255)" stroke-linejoin="miter" stroke-linecap="square" stroke-miterlimit="3"/></g></svg>