<?xml version="1.0" encoding="UTF-8" standalone="no"?><!-- Generator: Gravit.io --><svg xmlns="http://www.w3.org/2000/svg" xmlns:xlink="http://www.w3.org/1999/xlink" style="isolation:isolate" viewBox="28.197 -62.202 366.095 323.172" width="366.095pt" height="323.172pt"><defs><clipPath id="_clipPath_HgJHk0G58bKSV9htjFKCTbkGtoTosszc"><rect x="28.197" y="-62.202" width="366.095" height="323.172"/></clipPath></defs><g clip-path="url(#_clipPath_HgJHk0G58bKSV9htjFKCTbkGtoTosszc)"><path d=" M 146.929 46.117 L 282.742 -60.702 L 392.792 113.487 L 234.573 219.183 L 228.162 210.591 L 217.396 259.47 L 29.697 228.26 L 58.303 24.214 L 146.929 46.117 Z " fill="rgb(0,0,0)" vector-effect="non-scaling-stroke" stroke-width="1" stroke="rgb(0,0,0)" stroke-linejoin="miter" stroke-linecap="square" stroke-miterlimit="3"/><path d=" M 43.416 205.703 L 61.413 75.227 L 73.142 171.115 L 43.416 205.703 L 43.416 205.703 L 43.416 205.703 L 43.416 205.703 L 43.416 205.703 Z  M 104.488 46.097 L 189.113 92.688 L 232.283 77.98 L 104.488 46.097 L 104.488 46.097 L 104.488 46.097 L 104.488 46.097 L 104.488 46.097 Z  M 68.946 39.953 L 83.082 164.392 L 145.132 152.611 L 179.172 99.411 L 68.946 39.953 L 68.946 39.953 L 68.946 39.953 L 68.946 39.953 Z  M 155.436 158.922 L 190.841 102.384 L 243.707 85.948 L 210.895 240.93 L 155.436 158.922 L 155.436 158.922 L 155.436 158.922 Z  M 147.152 164.524 L 202.611 246.532 L 45.728 219.833 L 81.497 176.329 L 147.152 164.524 L 147.152 164.524 Z  M 158.633 50.168 L 249.656 -21.749 L 191.707 55.542 L 183.549 56.326 L 183.549 56.326 L 158.633 50.168 L 158.633 50.168 Z  M 212.653 63.518 L 203.533 57.577 L 279.519 -41.977 L 279.519 -41.977 L 279.519 -41.977 L 279.519 -41.977 L 317.852 77.252 L 256.452 92.052 L 253.836 90.348 L 257.314 74.556 L 212.653 63.518 L 212.653 63.518 Z  M 230.48 196.384 L 230.48 196.384 L 232.868 199.61 L 243.94 135.277 L 230.48 196.384 L 230.48 196.384 Z  M 300.902 -12.93 L 329.678 79.287 L 371.006 98.576 L 300.902 -12.93 L 300.902 -12.93 L 300.902 -12.93 L 300.902 -12.93 L 300.902 -12.93 L 300.902 -12.93 Z  M 259.514 103.741 L 324.21 87.478 L 373.728 112.236 L 242.723 201.306 L 259.514 103.741 L 259.514 103.741 L 259.514 103.741 L 259.514 103.741 Z " fill-rule="evenodd" fill="rgb(255,255,255)" vector-effect="non-scaling-stroke" stroke-width="1" stroke="rgb(255,255,255)" stroke-linejoin="miter" stroke-linecap="square" stroke-miterlimit="3"/></g></svg>