<?xml version="1.0" encoding="UTF-8" standalone="no"?><!-- Generator: Gravit.io --><svg xmlns="http://www.w3.org/2000/svg" xmlns:xlink="http://www.w3.org/1999/xlink" style="isolation:isolate" viewBox="28.197 -62.202 366.095 323.172" width="366.095pt" height="323.172pt"><defs><clipPath id="_clipPath_x5Uu3zh1mimi6U1LVFRZCAvTsJ3v6R1v"><rect x="28.197" y="-62.202" width="366.095" height="323.172"/></clipPath></defs><g clip-path="url(#_clipPath_x5Uu3zh1mimi6U1LVFRZCAvTsJ3v6R1v)"><path d=" M 146.063 46.273 L 282.95 -61.391 L 393 112.799 L 234.781 218.494 L 228.241 209.729 L 217.214 259.794 L 29.514 228.585 L 29.514 228.585 L 58.12 24.539 L 146.063 46.273 Z  M 231.184 196.367 L 233.076 198.922 L 241.846 147.964 L 231.184 196.367 Z  M 254.607 90.026 L 256.66 91.363 L 318.06 76.563 L 279.727 -42.666 L 279.727 -42.666 L 279.727 -42.666 L 279.727 -42.666 L 279.727 -42.666 L 203.741 56.888 L 212.742 62.752 L 258.143 73.973 L 254.607 90.026 Z  M 183.897 55.624 L 191.915 54.853 L 249.864 -22.438 L 158.887 49.442 L 158.887 49.442 L 183.897 55.624 Z  M 301.11 -13.618 L 329.886 78.598 L 371.213 97.887 L 301.11 -13.618 L 301.11 -13.618 L 301.11 -13.618 L 301.11 -13.618 L 301.11 -13.618 L 301.11 -13.618 L 301.11 -13.618 Z  M 259.722 103.052 L 324.418 86.79 L 373.936 111.547 L 242.931 200.618 L 259.722 103.052 L 259.722 103.052 L 259.722 103.052 L 259.722 103.052 L 259.722 103.052 Z  M 43.233 206.028 L 61.231 75.552 L 72.959 171.44 L 43.233 206.028 L 43.233 206.028 L 43.233 206.028 L 43.233 206.028 L 43.233 206.028 L 43.233 206.028 Z  M 104.306 46.422 L 188.93 93.013 L 232.1 78.305 L 104.306 46.422 L 104.306 46.422 L 104.306 46.422 L 104.306 46.422 L 104.306 46.422 L 104.306 46.422 Z  M 68.763 40.278 L 82.899 164.717 L 144.949 152.935 L 178.99 99.735 L 68.763 40.278 L 68.763 40.278 L 68.763 40.278 L 68.763 40.278 L 68.763 40.278 Z  M 155.253 159.246 L 190.658 102.709 L 243.525 86.273 L 210.712 241.255 L 155.253 159.246 L 155.253 159.246 L 155.253 159.246 L 155.253 159.246 Z  M 146.969 164.848 L 202.428 246.856 L 45.545 220.158 L 81.314 176.654 L 146.969 164.848 L 146.969 164.848 L 146.969 164.848 Z " fill-rule="evenodd" fill="rgb(0,0,0)" vector-effect="non-scaling-stroke" stroke-width="1" stroke="rgb(0,0,0)" stroke-linejoin="miter" stroke-linecap="square" stroke-miterlimit="3"/></g></svg>