<?xml version="1.0" encoding="UTF-8" standalone="no"?><!-- Generator: Gravit.io --><svg xmlns="http://www.w3.org/2000/svg" xmlns:xlink="http://www.w3.org/1999/xlink" style="isolation:isolate" viewBox="-1.5 -1.5 279 287" width="279pt" height="287pt"><defs><clipPath id="_clipPath_c4ZYX50a747qbOUQqYSl8ZNg9x2Kr3aG"><rect x="-1.5" y="-1.5" width="279" height="287"/></clipPath></defs><g clip-path="url(#_clipPath_c4ZYX50a747qbOUQqYSl8ZNg9x2Kr3aG)"><path d=" M -0.333 153.167 L 137.667 0.167 L 275.667 153.167 L 137.667 284.167 L -0.333 153.167 Z  M 23.667 142.167 L 111.667 44.167 L 67.667 130.167 L 23.667 142.167 L 23.667 142.167 L 23.667 142.167 L 23.667 142.167 L 23.667 142.167 Z  M 163.667 44.167 L 207.667 130.167 L 251.667 142.167 L 163.667 44.167 L 163.667 44.167 L 163.667 44.167 L 163.667 44.167 L 163.667 44.167 Z  M 137.667 19.167 L 79.667 130.167 L 137.667 155.167 L 195.667 130.167 L 137.667 19.167 L 137.667 19.167 L 137.667 19.167 L 137.667 19.167 Z  M 142.667 166.167 L 203.667 139.167 L 256.667 155.167 L 142.667 265.167 L 142.667 166.167 L 142.667 166.167 L 142.667 166.167 Z  M 132.667 166.167 L 132.667 265.167 L 17.667 155.167 L 71.667 139.167 L 132.667 166.167 L 132.667 166.167 Z " fill-rule="evenodd" fill="rgb(0,0,0)" vector-effect="non-scaling-stroke" stroke-width="1" stroke="rgb(0,0,0)" stroke-linejoin="miter" stroke-linecap="square" stroke-miterlimit="3"/></g></svg>