<?xml version="1.0" encoding="UTF-8" standalone="no"?><!-- Generator: Gravit.io --><svg xmlns="http://www.w3.org/2000/svg" xmlns:xlink="http://www.w3.org/1999/xlink" style="isolation:isolate" viewBox="-1.5 -1.5 270 263" width="270pt" height="263pt"><defs><clipPath id="_clipPath_Ou5drGqgCmwvLc5YlAnGvZzSXTKFfeFV"><rect x="-1.5" y="-1.5" width="270" height="263"/></clipPath></defs><g clip-path="url(#_clipPath_Ou5drGqgCmwvLc5YlAnGvZzSXTKFfeFV)"><path d=" M 0 105 L 48 25 L 94 0 L 173 0 L 220 25 L 267 105 L 267 158 L 224 232 L 178 258 L 90 260 L 43 232 L 0 158 L 0 105 Z " fill="rgb(0,0,0)" vector-effect="non-scaling-stroke" stroke-width="1" stroke="rgb(0,0,0)" stroke-linejoin="miter" stroke-linecap="square" stroke-miterlimit="3"/><path d=" M 139 53 L 139 127 L 201 164 L 255 105 L 213 36 L 139 53 L 139 53 L 139 53 L 139 53 L 139 53 Z  M 199 27 L 134 43 L 70 27 L 97 12 L 170 12 L 199 27 L 199 27 L 199 27 L 199 27 L 199 27 Z  M 12 107 L 55 36 L 128 53 L 128 127 L 68 164 L 12 107 L 12 107 L 12 107 L 12 107 Z  M 73 173 L 134 136 L 194 173 L 173 248 L 94 248 L 73 173 L 73 173 L 73 173 Z  M 12 122 L 12 154 L 52 225 L 81 241 L 61 173 L 12 122 L 12 122 Z  M 206 175 L 187 241 L 215 225 L 255 154 L 255 122 L 206 175 Z " fill-rule="evenodd" fill="rgb(255,255,255)" vector-effect="non-scaling-stroke" stroke-width="1" stroke="rgb(255,255,255)" stroke-linejoin="miter" stroke-linecap="square" stroke-miterlimit="3"/></g></svg>