<?xml version="1.0" encoding="UTF-8" standalone="no"?><!-- Generator: Gravit.io --><svg xmlns="http://www.w3.org/2000/svg" xmlns:xlink="http://www.w3.org/1999/xlink" style="isolation:isolate" viewBox="-1.5 -1.5 270 263" width="270pt" height="263pt"><defs><clipPath id="_clipPath_cBGvPLXD4LPQL9KgPBm5uuFhGexFzdYs"><rect x="-1.5" y="-1.5" width="270" height="263"/></clipPath></defs><g clip-path="url(#_clipPath_cBGvPLXD4LPQL9KgPBm5uuFhGexFzdYs)"><path d=" M 0.5 104.833 L 48.5 24.833 L 94.5 -0.167 L 173.5 -0.167 L 220.5 24.833 L 267.5 104.833 L 267.5 157.833 L 224.5 231.833 L 178.5 257.833 L 90.5 259.833 L 43.5 231.833 L 0.5 157.833 L 0.5 104.833 Z  M 139.5 52.833 L 139.5 126.833 L 201.5 163.833 L 255.5 104.833 L 213.5 35.833 L 139.5 52.833 L 139.5 52.833 L 139.5 52.833 L 139.5 52.833 L 139.5 52.833 L 139.5 52.833 Z  M 199.5 26.833 L 134.5 42.833 L 70.5 26.833 L 97.5 11.833 L 170.5 11.833 L 199.5 26.833 L 199.5 26.833 L 199.5 26.833 L 199.5 26.833 L 199.5 26.833 L 199.5 26.833 Z  M 12.5 106.833 L 55.5 35.833 L 128.5 52.833 L 128.5 126.833 L 68.5 163.833 L 12.5 106.833 L 12.5 106.833 L 12.5 106.833 L 12.5 106.833 L 12.5 106.833 Z  M 73.5 172.833 L 134.5 135.833 L 194.5 172.833 L 173.5 247.833 L 94.5 247.833 L 73.5 172.833 L 73.5 172.833 L 73.5 172.833 L 73.5 172.833 Z  M 12.5 121.833 L 12.5 153.833 L 52.5 224.833 L 81.5 240.833 L 61.5 172.833 L 12.5 121.833 L 12.5 121.833 L 12.5 121.833 Z  M 206.5 174.833 L 187.5 240.833 L 215.5 224.833 L 255.5 153.833 L 255.5 121.833 L 206.5 174.833 L 206.5 174.833 Z " fill-rule="evenodd" fill="rgb(0,0,0)" vector-effect="non-scaling-stroke" stroke-width="1" stroke="rgb(0,0,0)" stroke-linejoin="miter" stroke-linecap="square" stroke-miterlimit="3"/></g></svg>