<?xml version="1.0" encoding="UTF-8" standalone="no"?><!-- Generator: Gravit.io --><svg xmlns="http://www.w3.org/2000/svg" xmlns:xlink="http://www.w3.org/1999/xlink" style="isolation:isolate" viewBox="-1.5 -1.5 239 273" width="239pt" height="273pt"><defs><clipPath id="_clipPath_OdWcebFtkfxjCaSc7fWDORxaprVsu9J2"><rect x="-1.5" y="-1.5" width="239" height="273"/></clipPath></defs><g clip-path="url(#_clipPath_OdWcebFtkfxjCaSc7fWDORxaprVsu9J2)"><path d=" M 118 0 L 236 66 L 236 201 L 118 270 L 0 201 L 0 66 L 118 0 Z " fill="rgb(0,0,0)" vector-effect="non-scaling-stroke" stroke-width="1" stroke="rgb(0,0,0)" stroke-linejoin="miter" stroke-linecap="square" stroke-miterlimit="3"/><path d=" M 17 70 L 93 27 L 46 86 L 17 70 L 17 70 L 17 70 L 17 70 L 17 70 L 17 70 L 17 70 L 17 70 L 17 70 Z  M 142 27 L 219 70 L 190 86 L 142 27 L 142 27 L 142 27 L 142 27 L 142 27 L 142 27 L 142 27 L 142 27 L 142 27 Z  M 57 99 L 179 99 L 118 206 L 57 99 L 57 99 L 57 99 L 57 99 L 57 99 L 57 99 L 57 99 L 57 99 Z  M 195 96 L 224 79 L 224 168 L 195 96 L 195 96 L 195 96 L 195 96 L 195 96 L 195 96 L 195 96 Z  M 187 107 L 128 210 L 221 194 L 187 107 L 187 107 L 187 107 L 187 107 L 187 107 L 187 107 Z  M 123 223 L 123 254 L 199 210 L 123 223 L 123 223 L 123 223 L 123 223 L 123 223 Z  M 112 254 L 112 223 L 37 210 L 112 254 L 112 254 L 112 254 L 112 254 Z  M 11 168 L 40 96 L 11 79 L 11 168 L 11 168 L 11 168 Z  M 13 194 L 106 210 L 48 107 L 13 194 L 13 194 Z  M 118 16 L 59 88 L 176 88 L 118 16 Z " fill-rule="evenodd" fill="rgb(255,255,255)" vector-effect="non-scaling-stroke" stroke-width="1" stroke="rgb(255,255,255)" stroke-linejoin="miter" stroke-linecap="square" stroke-miterlimit="3"/></g></svg>