<?xml version="1.0" encoding="UTF-8" standalone="no"?><!-- Generator: Gravit.io --><svg xmlns="http://www.w3.org/2000/svg" xmlns:xlink="http://www.w3.org/1999/xlink" style="isolation:isolate" viewBox="-1.5 -1.5 239 273" width="239pt" height="273pt"><defs><clipPath id="_clipPath_0OaRgKBFnMY0UeBVAMFrzQbizLuFz4A8"><rect x="-1.5" y="-1.5" width="239" height="273"/></clipPath></defs><g clip-path="url(#_clipPath_0OaRgKBFnMY0UeBVAMFrzQbizLuFz4A8)"><path d=" M 118.5 -0.25 L 236.5 65.75 L 236.5 200.75 L 118.5 269.75 L 0.5 200.75 L 0.5 65.75 L 118.5 -0.25 Z  M 17.5 69.75 L 93.5 26.75 L 46.5 85.75 L 17.5 69.75 L 17.5 69.75 L 17.5 69.75 L 17.5 69.75 L 17.5 69.75 L 17.5 69.75 L 17.5 69.75 L 17.5 69.75 L 17.5 69.75 L 17.5 69.75 Z  M 142.5 26.75 L 219.5 69.75 L 190.5 85.75 L 142.5 26.75 L 142.5 26.75 L 142.5 26.75 L 142.5 26.75 L 142.5 26.75 L 142.5 26.75 L 142.5 26.75 L 142.5 26.75 L 142.5 26.75 L 142.5 26.75 Z  M 57.5 98.75 L 179.5 98.75 L 118.5 205.75 L 57.5 98.75 L 57.5 98.75 L 57.5 98.75 L 57.5 98.75 L 57.5 98.75 L 57.5 98.75 L 57.5 98.75 L 57.5 98.75 L 57.5 98.75 Z  M 195.5 95.75 L 224.5 78.75 L 224.5 167.75 L 195.5 95.75 L 195.5 95.75 L 195.5 95.75 L 195.5 95.75 L 195.5 95.75 L 195.5 95.75 L 195.5 95.75 L 195.5 95.75 Z  M 187.5 106.75 L 128.5 209.75 L 221.5 193.75 L 187.5 106.75 L 187.5 106.75 L 187.5 106.75 L 187.5 106.75 L 187.5 106.75 L 187.5 106.75 L 187.5 106.75 Z  M 123.5 222.75 L 123.5 253.75 L 199.5 209.75 L 123.5 222.75 L 123.5 222.75 L 123.5 222.75 L 123.5 222.75 L 123.5 222.75 L 123.5 222.75 Z  M 112.5 253.75 L 112.5 222.75 L 37.5 209.75 L 112.5 253.75 L 112.5 253.75 L 112.5 253.75 L 112.5 253.75 L 112.5 253.75 Z  M 11.5 167.75 L 40.5 95.75 L 11.5 78.75 L 11.5 167.75 L 11.5 167.75 L 11.5 167.75 L 11.5 167.75 Z  M 13.5 193.75 L 106.5 209.75 L 48.5 106.75 L 13.5 193.75 L 13.5 193.75 L 13.5 193.75 Z  M 118.5 15.75 L 59.5 87.75 L 176.5 87.75 L 118.5 15.75 L 118.5 15.75 Z " fill-rule="evenodd" fill="rgb(0,0,0)" vector-effect="non-scaling-stroke" stroke-width="1" stroke="rgb(0,0,0)" stroke-linejoin="miter" stroke-linecap="square" stroke-miterlimit="3"/></g></svg>