<?xml version="1.0" encoding="UTF-8" standalone="no"?><!-- Generator: Gravit.io --><svg xmlns="http://www.w3.org/2000/svg" xmlns:xlink="http://www.w3.org/1999/xlink" style="isolation:isolate" viewBox="-1.5 -1.5 257 295" width="257pt" height="295pt"><defs><clipPath id="_clipPath_5ZkFKnHoWG0a9HTmXnjmtSXAH5kts2QH"><rect x="-1.5" y="-1.5" width="257" height="295"/></clipPath></defs><g clip-path="url(#_clipPath_5ZkFKnHoWG0a9HTmXnjmtSXAH5kts2QH)"><path d=" M 0 75 L 127 0 L 254 75 L 254 220 L 127 292 L 0 220 L 0 75 Z " fill="rgb(0,0,0)" vector-effect="non-scaling-stroke" stroke-width="1" stroke="rgb(0,0,0)" stroke-linejoin="miter" stroke-linecap="square" stroke-miterlimit="3"/><path d=" M 16 79 L 127 12 L 237 79 L 127 142 L 16 79 L 16 79 Z  M 11 88 L 11 213 L 121 276 L 121 151 L 11 88 L 11 88 Z  M 132 151 L 243 88 L 243 213 L 132 276 L 132 151 Z " fill-rule="evenodd" fill="rgb(255,255,255)" vector-effect="non-scaling-stroke" stroke-width="1" stroke="rgb(255,255,255)" stroke-linejoin="miter" stroke-linecap="square" stroke-miterlimit="3"/><path d=" M 103.122 74.774 L 73.057 55.312 L 99.037 40.312 L 99.037 40.312 L 126.667 58.918 L 154.296 40.312 L 180.277 55.312 L 150.211 74.774 L 180.277 95.022 L 156.028 109.022 L 126.667 90.015 L 97.305 109.022 L 73.057 95.022 L 103.122 74.774 Z  M 19 181 L 19 151 L 107 196 L 107 224 L 19 181 L 19 181 Z " fill-rule="evenodd" fill="rgb(0,0,0)" vector-effect="non-scaling-stroke" stroke-width="1" stroke="rgb(0,0,0)" stroke-linejoin="miter" stroke-linecap="square" stroke-miterlimit="3"/></g></svg>