<?xml version="1.0" encoding="UTF-8" standalone="no"?><!-- Generator: Gravit.io --><svg xmlns="http://www.w3.org/2000/svg" xmlns:xlink="http://www.w3.org/1999/xlink" style="isolation:isolate" viewBox="-1.5 -1.5 257 295" width="257pt" height="295pt"><defs><clipPath id="_clipPath_8L9TD2MtDuqKknhjrSfVp0yZmDr98I34"><rect x="-1.5" y="-1.5" width="257" height="295"/></clipPath></defs><g clip-path="url(#_clipPath_8L9TD2MtDuqKknhjrSfVp0yZmDr98I34)"><path d=" M -0.333 75.167 L 126.667 0.167 L 253.667 75.167 L 253.667 220.167 L 126.667 292.167 L -0.333 220.167 L -0.333 75.167 Z  M 15.667 79.167 L 126.667 12.167 L 236.667 79.167 L 126.667 142.167 L 15.667 79.167 L 15.667 79.167 L 15.667 79.167 Z  M 10.667 88.167 L 10.667 213.167 L 120.667 276.167 L 120.667 151.167 L 10.667 88.167 L 10.667 88.167 L 10.667 88.167 Z  M 131.667 151.167 L 242.667 88.167 L 242.667 213.167 L 131.667 276.167 L 131.667 151.167 L 131.667 151.167 Z " fill-rule="evenodd" fill="rgb(0,0,0)" vector-effect="non-scaling-stroke" stroke-width="1" stroke="rgb(0,0,0)" stroke-linejoin="miter" stroke-linecap="square" stroke-miterlimit="3"/><path d=" M 103.122 74.774 L 73.057 55.312 L 99.037 40.312 L 99.037 40.312 L 126.667 58.918 L 154.296 40.312 L 180.277 55.312 L 150.211 74.774 L 180.277 95.022 L 156.028 109.022 L 126.667 90.015 L 97.305 109.022 L 73.057 95.022 L 103.122 74.774 Z  M 19 181 L 19 151 L 107 196 L 107 224 L 19 181 L 19 181 Z " fill-rule="evenodd" fill="rgb(0,0,0)" vector-effect="non-scaling-stroke" stroke-width="1" stroke="rgb(0,0,0)" stroke-linejoin="miter" stroke-linecap="square" stroke-miterlimit="3"/></g></svg>